<?xml version="1.0" encoding="utf-8"?>
<!-- Generator: Adobe Illustrator 21.0.0, SVG Export Plug-In . SVG Version: 6.00 Build 0)  -->
<svg version="1.1" id="Calque_1" xmlns="http://www.w3.org/2000/svg" xmlns:xlink="http://www.w3.org/1999/xlink" x="0px" y="0px"
	 viewBox="0 0 400 400" style="enable-background:new 0 0 400 400;" xml:space="preserve">
<g id="Calque_2">
	<path d="M307.1,87.8L307.1,87.8c0,3.6-2,6.8-5.2,8.4l-173.8,86.3c-14.3,7.1-14.3,27.4,0,34.5l172.6,85.6c3.9,2,6.4,6,6.4,10.4l0,0
		c0,13.6-14.4,22.4-26.5,16.2c0,0-106.3-54.7-181.8-93.6c-29.1-15-29.2-56.7,0-71.7c75-38.7,180.6-93,180.6-93
		C292.1,64.3,307.1,73.5,307.1,87.8z"/>
</g>
<g id="Calque_3">
	<path d="M325.1,128.5L325.1,128.5c0,2.3-1.3,4.4-3.3,5.4l-98,49.3c-13.6,6.9-13.6,26.3,0,33.1l97.3,49c2.4,1.2,4,3.8,4,6.6l0,0
		c0,8.7-9.1,14.3-16.7,10.3l-129.1-67.5c-12-6.3-12-23.5,0-29.8l128.3-67.1C315.6,113.7,325.1,119.5,325.1,128.5z"/>
</g>
</svg>
