<?xml version="1.0" encoding="utf-8"?>
<!-- Generator: Adobe Illustrator 21.0.0, SVG Export Plug-In . SVG Version: 6.00 Build 0)  -->
<svg version="1.1" id="Calque_1" xmlns="http://www.w3.org/2000/svg" xmlns:xlink="http://www.w3.org/1999/xlink" x="0px" y="0px"
	 viewBox="0 0 400 400" style="enable-background:new 0 0 400 400;" xml:space="preserve">
<g id="Calque_2">
	<path d="M123.6,70.9c0,0,105.5,54.3,180.6,93c29.1,15,29.1,56.7,0,71.7c-75.4,38.9-181.8,93.6-181.8,93.6
		c-12.1,6.2-26.5-2.6-26.5-16.2l0,0c0-4.4,2.5-8.4,6.4-10.4L274.9,217c14.3-7.1,14.3-27.4,0-34.5L101.1,96.2
		c-3.2-1.6-5.2-4.8-5.2-8.4l0,0C95.9,73.5,110.9,64.3,123.6,70.9z"/>
</g>
<g id="Calque_3">
	<path d="M95.5,117.8l128.3,67.1c12,6.3,12,23.5,0,29.8L94.7,282.2c-7.6,4-16.7-1.6-16.7-10.3l0,0c0-2.8,1.6-5.4,4-6.6l97.3-49
		c13.6-6.8,13.6-26.2,0-33.1l-98-49.3c-2-1-3.3-3.1-3.3-5.4l0,0C78,119.5,87.5,113.7,95.5,117.8z"/>
</g>
</svg>
